<svg width="50" height="50" viewBox="0 0 50 50" fill="none" xmlns="http://www.w3.org/2000/svg">
<path d="M49.9875 33.2127L47.6046 17.2035C47.566 12.5548 44.7442 8.24427 39.8466 5.36479C35.7903 2.98012 30.5177 1.66675 25 1.66675C19.4822 1.66675 14.2095 2.98012 10.1532 5.36479C5.25575 8.24427 2.43378 12.5548 2.39531 17.2035L0.0124023 33.2127C0.00419921 33.2681 0 33.324 0 33.3801C0 38.0875 3.1371 42.4467 8.60701 45.3401C13.0851 47.7087 18.9069 49.0132 25 49.0132C31.093 49.0132 36.9149 47.7087 41.393 45.3401C46.8628 42.4467 50 38.0875 50 33.3801C49.9999 33.324 49.9958 33.2681 49.9875 33.2127ZM11.3056 7.32504C15.0179 5.14262 19.8813 3.94067 25 3.94067C30.1187 3.94067 34.9821 5.14262 38.6943 7.32504C42.913 9.80531 45.3327 13.4411 45.3327 17.3C45.3327 21.1589 42.9131 24.7946 38.6944 27.275C34.9821 29.4574 30.1187 30.6594 25 30.6594C19.8814 30.6594 15.0179 29.4574 11.3057 27.275C7.087 24.7947 4.66728 21.1589 4.66728 17.3C4.66728 13.4411 7.0869 9.8054 11.3056 7.32504ZM40.3297 43.33C36.1733 45.5286 30.7291 46.7393 25 46.7393C19.2709 46.7393 13.8266 45.5286 9.67029 43.33C5.00312 40.8612 2.3121 37.2682 2.27431 33.4613L3.83964 22.9452C5.14354 25.3844 7.29403 27.5538 10.1534 29.235C14.2097 31.6196 19.4823 32.933 25 32.933C30.5177 32.933 35.7905 31.6196 39.8467 29.235C42.7061 27.5538 44.8566 25.3843 46.1605 22.9452L47.7258 33.4613C47.6879 37.2683 44.9969 40.8613 40.3297 43.33Z" fill="#F1CDB3"/>
<path d="M25.0001 28.3849C32.7945 28.3849 39.6732 25.369 42.1164 20.8808C42.7417 19.7337 43.0589 18.5288 43.0589 17.3C43.0589 14.2231 41.0995 11.3767 37.5418 9.28522C34.1737 7.30534 29.7197 6.21501 25.0001 6.21501C20.2805 6.21501 15.8264 7.30544 12.4584 9.28532C8.90059 11.3768 6.94121 14.2231 6.94121 17.3001C6.94121 18.529 7.2583 19.7338 7.8834 20.8803C10.327 25.369 17.2056 28.3849 25.0001 28.3849ZM25.0001 26.1111C18.4622 26.1111 12.5235 23.7622 10.2131 20.334C12.5244 16.9077 18.464 14.5611 25.0001 14.5611C31.5362 14.5611 37.4759 16.9077 39.7872 20.3341C37.4771 23.7622 31.5382 26.1111 25.0001 26.1111ZM9.21494 17.3001C9.21504 15.0621 10.7761 12.9119 13.6106 11.2455C16.6348 9.46784 20.6795 8.48884 25 8.48884C29.3204 8.48884 33.3653 9.46784 36.3894 11.2456C39.2239 12.9119 40.7851 15.062 40.7851 17.3001C40.7851 17.4995 40.7716 17.6984 40.7467 17.8968C37.611 14.475 31.6382 12.2873 25 12.2873C18.3618 12.2873 12.3891 14.4751 9.25342 17.8968C9.22817 17.6989 9.21532 17.4996 9.21494 17.3001Z" fill="#F1CDB3"/>
<path d="M25 34.8085C24.8462 34.8085 24.6941 34.8397 24.5527 34.9002C24.4113 34.9607 24.2837 35.0492 24.1775 35.1604C23.4369 35.9363 21.0208 38.6139 21.0208 40.4931C21.0208 42.6872 22.8059 44.4723 25 44.4723C27.1941 44.4723 28.9792 42.6872 28.9792 40.4931C28.9792 38.6139 26.563 35.9363 25.8225 35.1604C25.7163 35.0492 25.5887 34.9607 25.4473 34.9002C25.3059 34.8397 25.1538 34.8085 25 34.8085ZM25 42.1985C24.0597 42.1985 23.2946 41.4335 23.2946 40.4932C23.2946 39.9884 24.0882 38.7687 25 37.6618C25.9119 38.7689 26.7054 39.9884 26.7054 40.4932C26.7054 41.4335 25.9403 42.1985 25 42.1985Z" fill="#F1CDB3"/>
<path d="M19.9036 19.9148H19.5531C18.9252 19.9148 18.4162 20.4238 18.4162 21.0517C18.4162 21.6797 18.9252 22.1887 19.5531 22.1887H19.9036C20.5315 22.1887 21.0405 21.6797 21.0405 21.0517C21.0405 20.4238 20.5315 19.9148 19.9036 19.9148Z" fill="#F1CDB3"/>
<path d="M33.395 19.9148H25.285C24.657 19.9148 24.148 20.4238 24.148 21.0517C24.148 21.6797 24.657 22.1887 25.285 22.1887H33.395C34.0229 22.1887 34.5319 21.6797 34.5319 21.0517C34.5319 20.4238 34.0229 19.9148 33.395 19.9148Z" fill="#F1CDB3"/>
</svg>
