<svg width="50" height="50" viewBox="0 0 50 50" fill="none" xmlns="http://www.w3.org/2000/svg">
<path d="M47.7475 8.54252C46.4482 7.49721 44.6161 6.56772 42.3014 5.78002C37.6654 4.2022 31.5208 3.33325 24.9998 3.33325C18.4787 3.33325 12.3343 4.20229 7.69823 5.78002C5.38358 6.56772 3.55136 7.49721 2.25214 8.54252C0.757811 9.74506 0 11.0718 0 12.4858V23.4156C0 24.8297 0.757811 26.1565 2.25224 27.3589C3.55146 28.4042 5.38358 29.3337 7.69832 30.1214C12.1021 31.6202 17.8674 32.4787 24.0234 32.561V36.4795H20.6557C20.2827 34.5082 18.5472 33.0129 16.4691 33.0129C14.1196 33.0129 12.2083 34.9243 12.2083 37.2736C12.2083 38.2951 12.5706 39.2623 13.2116 40.0207C12.5625 40.7887 12.207 41.7622 12.2083 42.7677C12.2083 45.1172 14.1196 47.0285 16.4691 47.0285C18.5472 47.0285 20.2827 45.5331 20.6557 43.5619H29.3443C29.7173 45.5332 31.4528 47.0285 33.5309 47.0285C35.8804 47.0285 37.7917 45.1171 37.7917 42.7677C37.7917 41.7463 37.4294 40.7791 36.7884 40.0207C37.4375 39.2526 37.793 38.2792 37.7917 37.2736C37.7917 34.9242 35.8804 33.0129 33.5309 33.0129C31.4528 33.0129 29.7173 34.5083 29.3443 36.4795H25.9766V32.561C32.1326 32.4787 37.8979 31.6202 42.3017 30.1214C44.6163 29.3337 46.4485 28.4042 47.7478 27.3589C49.2422 26.1565 50 24.8297 50 23.4156V12.4858C49.9997 11.0718 49.2419 9.74506 47.7475 8.54252ZM30.2518 38.4327C30.3846 38.4327 30.5159 38.4056 30.6379 38.3531C30.7599 38.3006 30.8698 38.2237 30.9611 38.1273C31.0523 38.0308 31.123 37.9168 31.1687 37.7921C31.2144 37.6675 31.2342 37.5348 31.2269 37.4022C31.2245 37.3594 31.2232 37.3166 31.2231 37.2737C31.2231 36.0013 32.2583 34.9661 33.5308 34.9661C34.8032 34.9661 35.8385 36.0014 35.8385 37.2737C35.8385 38.0535 35.4481 38.7752 34.7942 39.2044C34.6588 39.2932 34.5476 39.4144 34.4707 39.5569C34.3938 39.6994 34.3535 39.8588 34.3535 40.0208C34.3535 40.1827 34.3938 40.3421 34.4707 40.4847C34.5476 40.6272 34.6588 40.7483 34.7942 40.8372C35.4481 41.2664 35.8385 41.9881 35.8385 42.7678C35.8385 44.0403 34.8032 45.0755 33.5308 45.0755C32.2583 45.0755 31.2231 44.0402 31.2231 42.7678C31.2231 42.7247 31.2246 42.6819 31.2269 42.6393C31.2343 42.5067 31.2145 42.374 31.1688 42.2493C31.1232 42.1246 31.0525 42.0106 30.9612 41.9141C30.87 41.8177 30.76 41.7408 30.638 41.6884C30.516 41.6359 30.3846 41.6088 30.2518 41.6089H19.7479C19.6151 41.6089 19.4838 41.636 19.3618 41.6885C19.2398 41.741 19.1299 41.8178 19.0386 41.9143C18.9474 42.0107 18.8767 42.1248 18.831 42.2494C18.7853 42.3741 18.7655 42.5068 18.7728 42.6393C18.7751 42.6819 18.7766 42.7247 18.7766 42.7678C18.7766 44.0403 17.7414 45.0755 16.4689 45.0755C15.1965 45.0755 14.1612 44.0402 14.1612 42.7678C14.1612 41.9881 14.5516 41.2664 15.2055 40.8372C15.3409 40.7483 15.4521 40.6272 15.529 40.4847C15.606 40.3421 15.6462 40.1827 15.6462 40.0208C15.6462 39.8588 15.606 39.6994 15.529 39.5569C15.4521 39.4144 15.3409 39.2932 15.2055 39.2044C14.5516 38.7752 14.1612 38.0535 14.1612 37.2737C14.1612 36.0013 15.1965 34.9661 16.4689 34.9661C17.7414 34.9661 18.7766 36.0014 18.7766 37.2737C18.7766 37.3169 18.7751 37.3596 18.7728 37.4022C18.7654 37.5348 18.7852 37.6675 18.8309 37.7922C18.8766 37.9169 18.9472 38.031 19.0385 38.1274C19.1297 38.2239 19.2397 38.3007 19.3617 38.3532C19.4837 38.4057 19.6151 38.4327 19.7479 38.4327H30.2518ZM24.9999 30.6151C23.7029 30.6151 22.6477 29.56 22.6477 28.263C22.6477 26.966 23.7029 25.9108 24.9999 25.9108C26.2968 25.9108 27.352 26.966 27.352 28.263C27.352 29.56 26.2968 30.6151 24.9999 30.6151ZM48.0466 23.4156C48.0466 26.5055 40.2537 29.9153 28.6637 30.5206C29.0838 29.8425 29.3059 29.0605 29.3051 28.2629C29.3051 27.9552 29.272 27.6551 29.2104 27.3654C33.0005 27.1169 36.5212 26.5514 39.4579 25.7134C39.9765 25.5653 40.2771 25.025 40.129 24.5064C39.981 23.9877 39.4408 23.6872 38.922 23.8353C35.9082 24.6952 32.2325 25.2561 28.2676 25.4647C27.4774 24.5432 26.3061 23.9577 24.9999 23.9577C23.6868 23.9577 22.5098 24.5493 21.7195 25.4793C19.0321 25.3511 16.4783 25.0642 14.1253 24.6215C13.5958 24.5216 13.0847 24.8706 12.985 25.4006C12.8853 25.9307 13.2342 26.4411 13.7642 26.5409C15.9577 26.9536 18.3146 27.2359 20.7848 27.3854C20.7248 27.674 20.6946 27.9681 20.6947 28.263C20.6939 29.0606 20.916 29.8426 21.3361 30.5207C9.74598 29.9154 1.95312 26.5056 1.95312 23.4156V16.1781L1.9664 16.1893C2.06004 16.2711 2.15531 16.351 2.25214 16.429C2.3827 16.5334 2.51571 16.6347 2.65107 16.7327L2.65312 16.7342C2.72597 16.7872 2.80029 16.84 2.87597 16.8924L2.90976 16.9156C2.98095 16.9646 3.05312 17.0133 3.12675 17.0616C3.1416 17.0714 3.15683 17.0812 3.17187 17.0909C3.24618 17.1393 3.32138 17.1875 3.39814 17.2353L3.43124 17.2556C4.58534 17.9693 6.01327 18.6181 7.69813 19.1915C12.3342 20.7694 18.4786 21.6383 24.9998 21.6383C31.5209 21.6383 37.6654 20.7694 42.3014 19.1915C43.9864 18.6181 45.4145 17.9692 46.5687 17.2554L46.6014 17.2354C46.6782 17.1875 46.7535 17.1393 46.8279 17.0908L46.8729 17.0617C46.9465 17.0134 47.0188 16.9647 47.0899 16.9157L47.1237 16.8925C47.1994 16.8401 47.2737 16.7873 47.3466 16.7343L47.3486 16.7328C47.484 16.6348 47.617 16.5335 47.7476 16.4291C47.8444 16.3511 47.9396 16.2712 48.0333 16.1894L48.0466 16.1782V23.4156ZM6.2744 16.5451C7.12508 16.1563 8.28866 15.7097 9.83533 15.276C14.0378 14.0977 19.4234 13.4489 24.9999 13.4489C30.5763 13.4489 35.9619 14.0978 40.1643 15.276C41.711 15.7096 42.8747 16.1562 43.7253 16.5451C39.6839 18.3462 33.0684 19.6853 24.9999 19.6853C16.9313 19.6853 10.3158 18.3461 6.2744 16.5451ZM48.0404 12.6289C48.0361 12.6859 48.0293 12.7427 48.02 12.7991L48.0188 12.8079C48.0082 12.8679 47.995 12.9274 47.9792 12.9862C47.968 13.0287 47.9555 13.0709 47.9417 13.1126L47.9337 13.1371C47.9122 13.1991 47.8882 13.2601 47.8618 13.3201C47.8515 13.3439 47.8402 13.3675 47.829 13.3912C47.8065 13.4385 47.7829 13.4856 47.7573 13.5322L47.7505 13.5447C47.3441 14.2781 46.5771 14.9196 45.8153 15.4205C44.8038 14.8378 43.1816 14.0936 40.6917 13.3954C36.3225 12.1704 30.7497 11.4959 25 11.4959C19.2502 11.4959 13.6775 12.1705 9.30809 13.3955C6.81835 14.0936 5.19618 14.8378 4.18456 15.4206C3.42294 14.9198 2.65585 14.2782 2.24941 13.5448L2.24257 13.5323C2.21699 13.4856 2.19335 13.4385 2.1708 13.3911C2.15966 13.3675 2.14843 13.344 2.13818 13.3203C2.12939 13.3004 2.12109 13.2804 2.11289 13.2604C2.09619 13.2194 2.08027 13.1784 2.06621 13.1373C2.06337 13.1292 2.06084 13.1209 2.0581 13.1128C2.04048 13.0595 2.02494 13.0056 2.01152 12.9511C1.99965 12.9038 1.98949 12.8561 1.98105 12.8081L1.97978 12.7993C1.97046 12.7429 1.96365 12.6861 1.95937 12.6291C1.95544 12.5814 1.95336 12.5336 1.95312 12.4858C1.95312 9.08051 11.418 5.28637 24.9999 5.28637C38.5817 5.28637 48.0466 9.08051 48.0466 12.4858C48.0466 12.5334 48.044 12.5812 48.0404 12.6289Z" fill="#F1CDB3"/>
<path d="M40.1471 9.70259C40.1091 9.51344 40.0164 9.3396 39.8806 9.20259C39.8352 9.15746 39.7854 9.1169 39.7321 9.0815C39.6255 9.01065 39.5061 8.96123 39.3806 8.93599C39.2546 8.9106 39.1248 8.9106 38.9988 8.93599C38.9363 8.94869 38.8757 8.96724 38.8161 8.99166C38.7575 9.01607 38.7009 9.04634 38.6482 9.0815C38.5945 9.11666 38.5447 9.15767 38.4988 9.20259C38.4538 9.24752 38.4138 9.2983 38.3778 9.35103C38.3069 9.45766 38.2575 9.57707 38.2323 9.70259C38.2196 9.76607 38.2137 9.82955 38.2137 9.89302C38.2137 9.95748 38.2197 10.021 38.2323 10.0844C38.2575 10.21 38.3069 10.3294 38.3778 10.436C38.4138 10.4887 38.4538 10.5385 38.4988 10.5844C38.5448 10.6294 38.5946 10.6694 38.6482 10.7055C38.7009 10.7407 38.7575 10.771 38.8161 10.7954C38.8757 10.8198 38.9364 10.8383 38.9988 10.851C39.0622 10.8637 39.1268 10.8706 39.1902 10.8706C39.2536 10.8706 39.3182 10.8637 39.3806 10.851C39.4431 10.8383 39.5047 10.8198 39.5632 10.7954C39.6218 10.771 39.6784 10.7407 39.7321 10.7055C39.7848 10.6694 39.8357 10.6294 39.8806 10.5844C39.9255 10.5385 39.9665 10.4887 40.0017 10.436C40.0725 10.3294 40.1219 10.2099 40.1471 10.0844C40.1599 10.021 40.1666 9.95748 40.1666 9.89302C40.1666 9.82945 40.1599 9.76597 40.1471 9.70259Z" fill="#F1CDB3"/>
<path d="M36.2358 8.21705C32.8712 7.58404 29.0416 7.24937 25.1613 7.24937C19.7907 7.24937 14.5988 7.88687 10.542 9.04459C10.0235 9.19264 9.72289 9.73297 9.87093 10.2516C9.9932 10.6808 10.3842 10.9605 10.8094 10.9605C10.8981 10.9605 10.9883 10.9484 11.0779 10.9228C14.9652 9.81354 19.9666 9.2026 25.1612 9.2026C28.9225 9.2026 32.6271 9.52555 35.8745 10.1366C36.4048 10.2361 36.9151 9.88746 37.0149 9.35738C37.1147 8.8273 36.7658 8.31695 36.2358 8.21705Z" fill="#F1CDB3"/>
<path d="M11.7675 24.6742C11.7548 24.6117 11.7363 24.5502 11.7118 24.4906C11.6874 24.4321 11.6572 24.3754 11.622 24.3227C11.5865 24.2692 11.5456 24.2194 11.4999 24.1742C11.455 24.1293 11.4052 24.0883 11.3515 24.0522C11.2988 24.017 11.2421 23.9877 11.1834 23.9633C11.1246 23.9387 11.0634 23.92 11.0008 23.9076C10.8748 23.8822 10.7451 23.8822 10.6191 23.9076C10.5565 23.9194 10.495 23.9389 10.4365 23.9633C10.3769 23.9877 10.3202 24.017 10.2675 24.0522C10.2138 24.0883 10.164 24.1293 10.1191 24.1742C10.0742 24.2192 10.0331 24.269 9.99798 24.3227C9.96282 24.3754 9.93255 24.4321 9.90813 24.4906C9.88372 24.5502 9.86516 24.6117 9.85247 24.6742C9.83977 24.7367 9.83294 24.8012 9.83294 24.8647C9.83354 24.9927 9.85909 25.1194 9.90813 25.2377C9.93255 25.2973 9.96282 25.3539 9.99798 25.4067C10.0331 25.4604 10.0742 25.5101 10.1191 25.5551C10.164 25.6 10.2138 25.641 10.2675 25.6762C10.3202 25.7123 10.3769 25.7416 10.4365 25.766C10.495 25.7905 10.5565 25.81 10.6191 25.8217C10.6816 25.8344 10.746 25.8412 10.8094 25.8412C10.8729 25.8412 10.9374 25.8344 11.0008 25.8217C11.0634 25.8093 11.1246 25.7907 11.1834 25.766C11.2424 25.742 11.2987 25.7119 11.3515 25.6762C11.405 25.641 11.4547 25.6004 11.4999 25.5551C11.591 25.4645 11.6631 25.3566 11.7118 25.2377C11.7612 25.1196 11.7864 24.9927 11.786 24.8647C11.786 24.8011 11.7801 24.7367 11.7675 24.6742Z" fill="#F1CDB3"/>
</svg>
