<svg width="50" height="50" viewBox="0 0 50 50" fill="none" xmlns="http://www.w3.org/2000/svg">
<path d="M44.0815 21.2481L39.2857 8.12275V1.19043C39.2857 0.533008 38.7526 0 38.0953 0H11.9049C11.2475 0 10.7145 0.533105 10.7145 1.19043V8.12266L5.91846 21.2481C5.34941 22.803 5.05867 24.4459 5.05957 26.1016V45.8971C5.05957 48.1594 6.9001 50 9.1625 50H40.8375C43.0999 50 44.9404 48.1594 44.9404 45.8971V26.1016C44.9404 24.4408 44.6515 22.8078 44.0815 21.2481ZM13.0952 2.38096H36.9048V7.14287H13.0952V2.38096ZM42.5596 41.7768H25.7564C25.099 41.7768 24.566 42.3099 24.566 42.9672C24.566 43.6246 25.0991 44.1576 25.7564 44.1576H42.5596V45.8969C42.5596 46.8464 41.7871 47.6189 40.8375 47.6189H9.1625C8.21299 47.6189 7.44053 46.8465 7.44053 45.8969V26.1016C7.43979 24.7246 7.68157 23.3583 8.15479 22.0652L12.7373 9.52383H37.2627L41.8452 22.0652C42.3184 23.3583 42.5602 24.7246 42.5595 26.1016L42.5596 41.7768Z" fill="#F1CDB3"/>
<path d="M29.6808 28.1709C29.2921 25.731 27.1732 23.86 24.6254 23.86C22.0777 23.86 19.9587 25.731 19.57 28.1709C17.5559 28.9991 16.2381 31.063 16.4082 33.3049C16.598 35.8031 18.6255 37.8267 21.1241 38.0123C22.0893 38.0842 23.0477 37.8857 23.8959 37.4382C24.3596 37.194 24.8914 37.1938 25.3547 37.4383C26.0904 37.8256 26.9095 38.0276 27.7409 38.0267C27.8691 38.0267 27.9979 38.0219 28.1264 38.0124C30.6252 37.8269 32.6527 35.8032 32.8425 33.305C33.0127 31.063 31.6949 28.9991 29.6808 28.1709ZM30.4684 33.1246C30.3671 34.4583 29.2846 35.5388 27.9502 35.6379C27.4314 35.6772 26.9178 35.5709 26.4655 35.3322C25.8984 35.0328 25.2668 34.8764 24.6255 34.8764C23.9842 34.8764 23.3526 35.0328 22.7855 35.3322C22.3332 35.5707 21.8207 35.6769 21.3007 35.6379C19.9664 35.5389 18.8838 34.4584 18.7826 33.1246C18.6786 31.7551 19.608 30.5103 20.9443 30.2289C21.2156 30.1717 21.4586 30.0216 21.6311 29.8044C21.8036 29.5873 21.8949 29.3167 21.8893 29.0394L21.8873 28.9792C21.8873 27.4693 23.1155 26.2411 24.6254 26.2411C26.1353 26.2411 27.3635 27.4693 27.3635 28.9749L27.3616 29.0394C27.3559 29.3167 27.4472 29.5873 27.6197 29.8045C27.7922 30.0217 28.0352 30.1718 28.3067 30.2289C29.6431 30.5103 30.5724 31.7551 30.4684 33.1246Z" fill="#F1CDB3"/>
<path d="M24.6255 21.4792C26.759 21.4792 28.4945 19.7437 28.4945 17.6102C28.4945 15.4767 26.759 13.7411 24.6255 13.7411C22.492 13.7411 20.7565 15.4768 20.7565 17.6102C20.7565 19.7436 22.4922 21.4792 24.6255 21.4792ZM24.6255 16.1221C25.4461 16.1221 26.1136 16.7896 26.1136 17.6102C26.1136 18.4308 25.4461 19.0983 24.6255 19.0983C23.8049 19.0983 23.1374 18.4308 23.1374 17.6102C23.1374 16.7896 23.805 16.1221 24.6255 16.1221Z" fill="#F1CDB3"/>
<path d="M20.1612 22.2134C20.1612 20.0799 18.4256 18.3444 16.2922 18.3444C14.1588 18.3444 12.4231 20.08 12.4231 22.2134C12.4231 24.3468 14.1587 26.0824 16.2922 26.0824C18.4257 26.0824 20.1612 24.3468 20.1612 22.2134ZM16.2922 23.7015C15.4716 23.7015 14.8041 23.034 14.8041 22.2134C14.8041 21.3928 15.4716 20.7253 16.2922 20.7253C17.1128 20.7253 17.7803 21.3928 17.7803 22.2134C17.7803 23.034 17.1127 23.7015 16.2922 23.7015Z" fill="#F1CDB3"/>
<path d="M32.9588 18.3443C30.8253 18.3443 29.0898 20.0799 29.0898 22.2133C29.0898 24.3467 30.8255 26.0823 32.9588 26.0823C35.0923 26.0823 36.8278 24.3468 36.8278 22.2133C36.8278 20.0798 35.0923 18.3443 32.9588 18.3443ZM32.9588 23.7015C32.1382 23.7015 31.4707 23.034 31.4707 22.2134C31.4707 21.3928 32.1383 20.7253 32.9588 20.7253C33.7794 20.7253 34.4469 21.3928 34.4469 22.2134C34.4469 23.034 33.7794 23.7015 32.9588 23.7015Z" fill="#F1CDB3"/>
<path d="M20.5778 41.7768H20.2888C19.6314 41.7768 19.0983 42.3099 19.0983 42.9672C19.0983 43.6247 19.6315 44.1577 20.2888 44.1577H20.5778C21.2353 44.1577 21.7683 43.6246 21.7683 42.9672C21.7684 42.3099 21.2354 41.7768 20.5778 41.7768Z" fill="#F1CDB3"/>
</svg>
