<svg width="50" height="50" viewBox="0 0 50 50" fill="none" xmlns="http://www.w3.org/2000/svg">
<path d="M30.9419 14.3179V9.78264C30.9419 9.18234 30.4553 8.69572 29.855 8.69572H29.0397V1.08692C29.0397 0.486622 28.5531 0 27.9528 0H20.8876C20.2873 0 19.8007 0.486622 19.8007 1.08692V8.69562H18.9854C18.3851 8.69562 17.8985 9.18224 17.8985 9.78254V14.3178C14.0814 15.8399 11.3767 19.5733 11.3767 23.9267V48.9131C11.3767 49.5134 11.8633 50 12.4636 50H36.3768C36.9771 50 37.4637 49.5134 37.4637 48.9131V23.9268C37.4636 19.5733 34.7589 15.8399 30.9419 14.3179ZM21.9745 2.17393H26.8658V8.69572H21.9745V2.17393ZM20.0722 10.8696H28.7679V13.5869H20.0722V10.8696ZM35.2896 47.8262H13.5505V23.9268C13.5505 19.4241 17.2137 15.7609 21.7164 15.7609H27.1238C31.6266 15.7609 35.2896 19.4241 35.2896 23.9268V47.8262Z" fill="#F1CDB3"/>
<path d="M31.4854 22.8261H17.3549C16.7546 22.8261 16.268 23.3127 16.268 23.913V44.0218C16.268 44.6221 16.7546 45.1087 17.3549 45.1087H31.4854C32.0857 45.1087 32.5723 44.6221 32.5723 44.0218V37.1907C32.5723 36.5904 32.0857 36.1038 31.4854 36.1038C30.8851 36.1038 30.3985 36.5904 30.3985 37.1907V42.9348H18.4419V25H30.3985V28.4407C30.3985 29.041 30.8851 29.5276 31.4854 29.5276C32.0857 29.5276 32.5723 29.041 32.5723 28.4407V23.9131C32.5723 23.3127 32.0857 22.8261 31.4854 22.8261Z" fill="#F1CDB3"/>
<path d="M31.4853 31.7204C30.8851 31.7204 30.3984 32.2071 30.3984 32.8074V32.916C30.3984 33.5163 30.8851 34.003 31.4853 34.003C32.0856 34.003 32.5723 33.5163 32.5723 32.916V32.8074C32.5723 32.2071 32.0856 31.7204 31.4853 31.7204Z" fill="#F1CDB3"/>
<path d="M23.3268 34.2928C21.5288 34.2928 20.066 35.7556 20.066 37.5536C20.066 39.3517 21.5288 40.8145 23.3268 40.8145C25.1249 40.8145 26.5877 39.3517 26.5877 37.5536C26.5877 35.7557 25.1249 34.2928 23.3268 34.2928ZM23.3268 38.6406C22.7275 38.6406 22.2399 38.153 22.2399 37.5537C22.2399 36.9544 22.7275 36.4668 23.3268 36.4668C23.9261 36.4668 24.4137 36.9544 24.4137 37.5537C24.4137 38.153 23.9262 38.6406 23.3268 38.6406Z" fill="#F1CDB3"/>
<path d="M29.038 29.9869C29.038 28.1889 27.5752 26.7261 25.7772 26.7261C23.9791 26.7261 22.5163 28.1889 22.5163 29.9869C22.5163 31.785 23.9791 33.2478 25.7772 33.2478C27.5751 33.2479 29.038 31.785 29.038 29.9869ZM25.7771 31.0739C25.1777 31.0739 24.6901 30.5863 24.6901 29.987C24.6901 29.3877 25.1777 28.9001 25.7771 28.9001C26.3764 28.9001 26.864 29.3877 26.864 29.987C26.864 30.5863 26.3766 31.0739 25.7771 31.0739Z" fill="#F1CDB3"/>
</svg>
