<svg width="50" height="50" viewBox="0 0 50 50" fill="none" xmlns="http://www.w3.org/2000/svg">
<path d="M48.294 16.6386L25.8171 0.188547C25.6497 0.0660387 25.4477 0 25.2403 0C25.0329 0 24.8309 0.0660387 24.6635 0.188547L2.18668 16.6386C1.75153 16.9571 1.6569 17.5682 1.97545 18.0034L4.91325 22.0176C4.98897 22.1211 5.08434 22.2087 5.19392 22.2754C5.30351 22.342 5.42515 22.3864 5.5519 22.4061C5.67866 22.4257 5.80803 22.4201 5.93264 22.3897C6.05724 22.3593 6.17463 22.3046 6.2781 22.2288L7.16463 21.58V49.0234C7.16463 49.5627 7.60193 50 8.14119 50H42.3911C42.9303 50 43.3676 49.5627 43.3676 49.0234V21.6178L44.2026 22.2288C44.3061 22.3046 44.4235 22.3593 44.5481 22.3896C44.6726 22.42 44.802 22.4256 44.9287 22.406C45.0555 22.3864 45.1771 22.342 45.2867 22.2753C45.3963 22.2087 45.4916 22.1211 45.5674 22.0176L48.5052 18.0034C48.8238 17.5681 48.7292 16.9571 48.294 16.6386ZM41.4145 44.2381H18.3098C17.7705 44.2381 17.3332 44.6754 17.3332 45.2146C17.3332 45.7539 17.7705 46.1912 18.3098 46.1912H41.4145V48.047H9.11766V20.9209H31.9871C32.5263 20.9209 32.9636 20.4836 32.9636 19.9444C32.9636 19.4051 32.5263 18.9678 31.9871 18.9678H10.7345L25.2404 8.35107L41.4145 20.1884V44.2381ZM44.568 20.076L25.8171 6.35292C25.6498 6.23034 25.4478 6.16428 25.2404 6.16434C25.0329 6.16426 24.8309 6.23032 24.6636 6.35292L5.91257 20.076L4.12829 17.6379L25.2405 2.1866L46.3526 17.6379L44.568 20.076Z" fill="#F1CDB3"/>
<path d="M36.4631 19.7539C36.4504 19.6913 36.4308 19.6298 36.4064 19.5702C36.382 19.5116 36.3517 19.455 36.3166 19.4022C36.2814 19.3487 36.2408 19.299 36.1955 19.2538C36.0119 19.0713 35.7639 18.9685 35.505 18.9676C35.2482 18.9676 34.9963 19.072 34.8147 19.2538C34.7698 19.2987 34.7288 19.3485 34.6936 19.4022C34.6585 19.455 34.6282 19.5116 34.6038 19.5702C34.5794 19.6298 34.5598 19.6913 34.5481 19.7539C34.5354 19.8164 34.5286 19.8808 34.5286 19.9442C34.5286 20.0077 34.5354 20.0722 34.5481 20.1346C34.5598 20.197 34.5794 20.2587 34.6038 20.3182C34.6282 20.3769 34.6585 20.4336 34.6936 20.4863C34.7288 20.54 34.7698 20.5897 34.8147 20.6347C34.8596 20.6797 34.9094 20.7207 34.9632 20.7558C35.0159 20.7909 35.0725 20.8213 35.1321 20.8457C35.1907 20.8701 35.2521 20.8896 35.3147 20.9013C35.3772 20.914 35.4417 20.9208 35.505 20.9208C35.5685 20.9208 35.6331 20.914 35.6955 20.9013C35.7581 20.8892 35.8193 20.8706 35.8781 20.8457C35.9377 20.8213 35.9943 20.7909 36.047 20.7558C36.1007 20.7207 36.1505 20.6797 36.1955 20.6347C36.2404 20.5898 36.2814 20.54 36.3166 20.4863C36.3517 20.4336 36.382 20.3769 36.4064 20.3182C36.4308 20.2588 36.4504 20.1971 36.4631 20.1346C36.4758 20.0721 36.4815 20.0077 36.4815 19.9442C36.4815 19.8808 36.4757 19.8163 36.4631 19.7539Z" fill="#F1CDB3"/>
<path d="M15.7489 45.0236C15.7364 44.961 15.7178 44.8999 15.6933 44.8409C15.6689 44.7822 15.6386 44.7247 15.6034 44.672C15.568 44.6187 15.5275 44.5689 15.4824 44.5236C15.4375 44.4786 15.3876 44.4386 15.334 44.4025C15.2273 44.3316 15.1079 44.2822 14.9824 44.257C14.8564 44.2316 14.7266 44.2316 14.6006 44.257C14.539 44.2696 14.4775 44.2882 14.4179 44.3126C14.3594 44.337 14.3027 44.3673 14.25 44.4025C14.1963 44.4376 14.1464 44.4786 14.1015 44.5236C14.0556 44.5685 14.0156 44.6193 13.9795 44.672C13.9086 44.7786 13.8592 44.898 13.8341 45.0236C13.8213 45.087 13.8155 45.1505 13.8155 45.214C13.8151 45.3423 13.8403 45.4695 13.8896 45.5879C13.914 45.6466 13.9444 45.7033 13.9795 45.7569C14.0156 45.8096 14.0556 45.8594 14.1015 45.9053C14.1465 45.9503 14.1964 45.9913 14.25 46.0264C14.3027 46.0616 14.3594 46.0918 14.4179 46.1162C14.4775 46.1407 14.539 46.1592 14.6006 46.1719C14.664 46.1846 14.7285 46.1914 14.792 46.1914C14.9849 46.1906 15.1733 46.1332 15.334 46.0264C15.3875 45.9913 15.4372 45.9507 15.4824 45.9053C15.5273 45.8594 15.5683 45.8097 15.6034 45.7569C15.7105 45.596 15.7679 45.4072 15.7684 45.214C15.7684 45.1505 15.7616 45.0869 15.7489 45.0236Z" fill="#F1CDB3"/>
<path d="M37.3708 25.4785C37.3708 24.6503 37.046 23.873 36.4561 23.2901C35.8719 22.7129 35.0731 22.3897 34.2586 22.3968C34.0018 22.3995 33.7463 22.4341 33.498 22.4998C31.6896 22.9629 29.9228 23.5753 28.2157 24.3306C27.2407 24.1 26.2423 23.9839 25.2405 23.9845C24.6763 23.9845 24.1072 24.0215 23.5485 24.0945C23.117 24.1514 22.6888 24.2302 22.2654 24.3306C20.5585 23.5753 18.792 22.9631 16.9839 22.5C16.9752 22.4975 16.9665 22.4952 16.9577 22.493C15.9966 22.2482 15.0054 22.4683 14.2384 23.0976C13.4716 23.7267 13.0621 24.6557 13.1148 25.6455C13.1685 26.6616 13.2685 27.6747 13.4143 28.6817C13.5452 29.5844 13.7125 30.4814 13.9157 31.3706C13.6134 32.1442 13.4027 32.9505 13.2881 33.7731C13.2404 34.1165 13.2163 34.4628 13.216 34.8096C13.216 39.1812 17.0281 42.7378 21.7141 42.7378H28.7671C31.3356 42.7378 33.7385 41.6697 35.3599 39.8073C36.8458 38.1005 37.4967 35.9572 37.1929 33.7725C37.1276 33.3041 37.0312 32.8405 36.9045 32.3849C36.8084 32.0416 36.6954 31.7033 36.5658 31.3712C36.9956 29.4899 37.2635 27.5752 37.3663 25.6481C37.3693 25.591 37.3708 25.5348 37.3708 25.4785ZM35.4158 25.5392L35.4156 25.5426C35.3136 27.4576 35.0385 29.3594 34.5938 31.2248C34.5454 31.4279 34.5633 31.6411 34.6449 31.8332C34.7937 32.1833 34.9199 32.5427 35.0225 32.909C35.1259 33.2809 35.2046 33.6592 35.258 34.0415C35.4828 35.6582 34.9957 37.2504 33.8863 38.5247C32.636 39.9609 30.7701 40.7846 28.7667 40.7846H21.7136C18.1048 40.7846 15.1687 38.1042 15.1687 34.8096C15.1687 34.5567 15.1867 34.298 15.2222 34.0414C15.3283 33.2818 15.5345 32.5395 15.8354 31.834C15.9173 31.6417 15.9353 31.4282 15.8868 31.2249C15.6646 30.2924 15.4843 29.3504 15.3467 28.4017C15.2094 27.4533 15.1153 26.4992 15.0647 25.5424C15.0453 25.1791 15.1955 24.8384 15.4769 24.6075C15.6829 24.4384 15.9333 24.3497 16.191 24.3497C16.2788 24.3497 16.3676 24.3599 16.4558 24.3809L16.4752 24.3861C18.2913 24.8496 20.0628 25.4729 21.7689 26.2488C21.9749 26.3427 22.2072 26.3622 22.426 26.3039C22.8782 26.1833 23.3378 26.0922 23.8018 26.031C24.2761 25.969 24.7601 25.9376 25.2399 25.9376C26.1963 25.9376 27.1429 26.0608 28.0537 26.3039C28.2722 26.3619 28.5042 26.3429 28.7101 26.2492C30.4223 25.4706 32.2003 24.8455 34.023 24.3811C34.1064 24.3612 34.1918 24.3506 34.2776 24.3497H34.2903C34.5822 24.3497 34.8705 24.4694 35.0828 24.6792C35.189 24.7834 35.2733 24.9078 35.3307 25.045C35.3882 25.1823 35.4176 25.3296 35.4173 25.4784C35.4174 25.4986 35.4169 25.5187 35.4158 25.5392Z" fill="#F1CDB3"/>
<path d="M27.0719 36.3052C26.6005 36.3052 26.2169 35.9217 26.2169 35.4503C26.2169 34.9111 25.7797 34.4738 25.2404 34.4738C24.701 34.4738 24.2638 34.9111 24.2638 35.4503V35.486C24.2638 35.9574 23.8803 36.341 23.4089 36.341C22.8696 36.341 22.4324 36.7783 22.4324 37.3175C22.4324 37.8568 22.8696 38.2941 23.4089 38.2941C24.1179 38.2941 24.7662 38.0297 25.2609 37.5947C25.7667 38.0237 26.4086 38.259 27.0719 38.2583C27.6112 38.2583 28.0485 37.821 28.0485 37.2818C28.0485 36.7424 27.6112 36.3052 27.0719 36.3052Z" fill="#F1CDB3"/>
<path d="M21.8267 31.8054L20.3761 31.1407C20.2485 31.0822 20.1098 31.0519 19.9694 31.0519C19.829 31.0519 19.6902 31.0822 19.5626 31.1407L18.112 31.8054C17.6216 32.03 17.4062 32.6096 17.6309 33.0999C17.6843 33.2165 17.7601 33.3215 17.8541 33.4087C17.9481 33.496 18.0583 33.5639 18.1785 33.6086C18.2987 33.6533 18.4266 33.6738 18.5547 33.6691C18.6829 33.6644 18.8089 33.6344 18.9254 33.581L19.9693 33.1027L21.0131 33.581C21.5032 33.8059 22.0831 33.5902 22.3077 33.0999C22.5325 32.6096 22.3169 32.0299 21.8267 31.8054Z" fill="#F1CDB3"/>
<path d="M32.3687 31.8052L30.9182 31.1406C30.7905 31.082 30.6518 31.0517 30.5114 31.0517C30.371 31.0517 30.2323 31.082 30.1047 31.1406L28.6541 31.8052C28.1637 32.0298 27.9483 32.6094 28.173 33.0998C28.3977 33.5903 28.9773 33.8058 29.4676 33.5808L30.5114 33.1026L31.5553 33.5808C31.6826 33.6394 31.8212 33.6698 31.9614 33.6698C32.3315 33.6698 32.6855 33.4583 32.8498 33.0998C33.0745 32.6094 32.8592 32.0298 32.3687 31.8052Z" fill="#F1CDB3"/>
</svg>
