<svg width="50" height="50" viewBox="0 0 50 50" fill="none" xmlns="http://www.w3.org/2000/svg">
<path d="M45.259 29.4988C42.5299 28.57 38.9207 28.0585 35.0965 28.0585C34.8574 28.0585 34.6192 28.0604 34.3821 28.0645C30.8245 28.124 27.4925 28.628 24.9339 29.4988C24.5233 29.6378 24.1187 29.7936 23.7209 29.9657V14.3604C23.7209 7.8206 18.4004 2.5 11.8604 2.5C5.32051 2.5 0 7.8206 0 14.3604V35.7718C0 42.3116 5.32051 47.6322 11.8604 47.6322C13.935 47.6322 15.9769 47.0885 17.7656 46.0598C18.8935 45.4111 19.9067 44.578 20.764 43.6048C21.3871 44.4801 22.6209 45.4047 24.934 46.1919C27.6631 47.1207 31.2722 47.6322 35.0964 47.6322C38.9206 47.6322 42.5298 47.1207 45.2589 46.1919C49.1774 44.8583 50 43.1305 50 41.9158V33.7749C50 32.5603 49.1774 30.8324 45.259 29.4988ZM22.1462 33.7749C22.1466 33.7386 22.1498 33.7023 22.156 33.6665L22.1576 33.6568C22.1907 33.4804 22.2969 33.2754 22.4923 33.0532L22.496 33.0491C22.5256 33.0156 22.5579 32.9816 22.5916 32.9474C22.6142 32.9247 22.6367 32.9019 22.6608 32.8793L22.6893 32.8527C22.8529 32.7019 23.0501 32.5503 23.2776 32.4021C23.2815 32.3995 23.2849 32.3964 23.2887 32.3938C23.8226 32.0471 24.565 31.6875 25.5633 31.3478C28.0951 30.4861 31.4808 30.0115 35.0965 30.0115C38.3909 30.0116 41.492 30.4066 43.9325 31.1284L23.0331 34.9797C22.4057 34.5178 22.1473 34.0897 22.1462 33.777V33.7749ZM21.7678 31.0753C21.0149 31.652 20.5953 32.2381 20.3826 32.7818C20.311 32.9646 20.259 33.1546 20.2277 33.3484C20.2134 33.4366 20.2036 33.5254 20.1982 33.6146L20.1966 33.6397C20.1942 33.6854 20.1928 33.7305 20.1928 33.7748V41.1341C18.3574 43.9854 15.2625 45.6791 11.8604 45.6791C6.39756 45.6791 1.95312 41.2347 1.95312 35.7718V26.0427H3.90625V31.3161C3.90625 31.8555 4.34355 32.2927 4.88281 32.2927C5.42207 32.2927 5.85938 31.8555 5.85938 31.3161V26.0427H21.7678V31.0753ZM21.7678 24.0896H5.85938V14.3604C5.85938 11.0515 8.55137 8.35937 11.8604 8.35937C15.1695 8.35937 17.8615 11.0515 17.8615 14.3604C17.8615 14.8998 18.2988 15.337 18.8381 15.337C19.3774 15.337 19.8146 14.8998 19.8146 14.3604C19.8146 9.97451 16.2464 6.40625 11.8604 6.40625C7.47451 6.40625 3.90625 9.97451 3.90625 14.3604V24.0896H1.95312V14.3604C1.95312 8.89756 6.39756 4.45312 11.8604 4.45312C17.3233 4.45312 21.7678 8.89756 21.7678 14.3604V24.0896ZM48.0469 41.9158C48.0469 42.4989 47.152 43.4845 44.6297 44.343C42.0979 45.2046 38.7122 45.6792 35.0965 45.6792C31.4808 45.6792 28.0951 45.2047 25.5633 44.343C23.041 43.4846 22.1461 42.499 22.1461 41.9158V41.4155L22.1462 41.4142V36.7443C22.8302 37.1994 23.737 37.6437 24.934 38.051C27.6631 38.9798 31.2723 39.4913 35.0965 39.4913C38.9207 39.4913 42.5299 38.9798 45.259 38.051C46.456 37.6436 47.3629 37.1994 48.0469 36.7442V41.9158ZM44.6297 36.202C42.0979 37.0636 38.7123 37.5382 35.0965 37.5382C31.7547 37.5382 28.6111 37.132 26.155 36.3904L47.1042 32.53C47.7731 33.0082 48.0469 33.4529 48.0469 33.7749C48.0469 34.358 47.152 35.3436 44.6297 36.202Z" fill="#F1CDB3"/>
<path d="M5.57314 34.5017C5.52822 34.4568 5.47851 34.4158 5.4248 34.3806C5.3716 34.3451 5.31501 34.315 5.25585 34.2907C5.19726 34.2663 5.13583 34.2478 5.07333 34.2351C4.94765 34.2097 4.81816 34.2097 4.69247 34.2351C4.62997 34.2478 4.56845 34.2663 4.50888 34.2907C4.45019 34.3152 4.39365 34.3454 4.34091 34.3806C4.2871 34.4158 4.2373 34.4568 4.19238 34.5017C4.14746 34.5466 4.10644 34.5964 4.07128 34.6501C4.03515 34.7029 4.00585 34.7595 3.98144 34.8191C3.95703 34.8777 3.93749 34.9392 3.92587 35.0017C3.91308 35.0642 3.90634 35.1286 3.90634 35.1921C3.90634 35.2566 3.91308 35.32 3.92587 35.3835C3.93749 35.446 3.95703 35.5075 3.98144 35.5661C4.00585 35.6247 4.03515 35.6814 4.07128 35.7351C4.10644 35.7878 4.14746 35.8376 4.19238 35.8835C4.32944 36.0194 4.5033 36.112 4.69247 36.1501C4.75497 36.1628 4.81943 36.1687 4.8829 36.1687C5.01092 36.169 5.13772 36.1438 5.25585 36.0945C5.31501 36.0702 5.3716 36.0401 5.4248 36.0046C5.47851 35.9685 5.52831 35.9284 5.57324 35.8835C5.61826 35.8376 5.65927 35.7878 5.69433 35.7351C5.72949 35.6814 5.75976 35.6247 5.78417 35.5661C5.80859 35.5075 5.82812 35.446 5.84081 35.3835C5.85351 35.32 5.85937 35.2566 5.85937 35.1921C5.85937 34.9353 5.75488 34.6833 5.57314 34.5017Z" fill="#F1CDB3"/>
</svg>
